<svg width="188" height="70" viewBox="0 0 188 70" fill="none" xmlns="http://www.w3.org/2000/svg">
<rect width="70" height="70" fill="#02030C"/>
<circle cx="35.5" cy="34.5" r="32.5" fill="#A5C3FF"/>
<path d="M47.8613 21.0605C49.3782 21.0607 50.632 22.1872 50.8389 23.6465L50.8652 23.9434L50.917 25.4551C51.1014 32.8994 50.1914 38.6142 47.2451 42.6611C44.0191 47.0922 38.7417 49.0277 31.5439 49.6592C29.27 49.8587 26.7696 49.9321 24.0332 49.9033C22.3751 49.8859 21.0607 48.533 21.0605 46.8955V24.0723C21.0605 22.409 22.409 21.0605 24.0723 21.0605H47.8613Z" stroke="#02030C" stroke-width="4.12121"/>
<path d="M31.4043 47.8175L31.4066 39.3599C31.4067 38.7819 31.8851 38.3191 32.4631 38.3177C38.5696 38.3024 41.3615 36.7336 41.3479 29.7853C41.3468 29.2309 40.8891 28.7878 40.3347 28.7878H29.4226" stroke="#02030C" stroke-width="3.89334"/>
<path d="M86.5852 42V28.9091H94.4347V30.3153H88.1705V34.7386H93.8466V36.1449H88.1705V42H86.5852ZM98.7349 28.9091V42H97.1497V28.9091H98.7349ZM101.479 42V40.8494L108.536 30.3153H101.402V28.9091H110.428V30.0597L103.371 40.5938H110.504V42H101.479ZM113.163 28.9091H115.055L119.504 39.7756H119.658L124.107 28.9091H125.999V42H124.516V32.054H124.388L120.297 42H118.865L114.774 32.054H114.646V42H113.163V28.9091ZM129.714 42H128.052L132.859 28.9091H134.495L139.302 42H137.64L133.728 30.9801H133.626L129.714 42ZM130.328 36.8864H137.026V38.2926H130.328V36.8864ZM148.161 32.5078C148.102 31.9496 147.85 31.5149 147.407 31.2038C146.968 30.8928 146.397 30.7372 145.694 30.7372C145.2 30.7372 144.776 30.8118 144.422 30.9609C144.068 31.1101 143.798 31.3125 143.61 31.5682C143.423 31.8239 143.327 32.1158 143.323 32.4439C143.323 32.7166 143.384 32.9531 143.508 33.1534C143.636 33.3537 143.808 33.5241 144.026 33.6648C144.243 33.8011 144.484 33.9162 144.748 34.0099C145.012 34.1037 145.279 34.1825 145.547 34.2464L146.774 34.5533C147.269 34.6683 147.744 34.8239 148.2 35.0199C148.66 35.2159 149.071 35.4631 149.433 35.7614C149.8 36.0597 150.09 36.4197 150.303 36.8416C150.516 37.2635 150.622 37.7578 150.622 38.3246C150.622 39.0916 150.426 39.767 150.034 40.3509C149.642 40.9304 149.075 41.3842 148.334 41.7124C147.597 42.0362 146.704 42.1982 145.656 42.1982C144.637 42.1982 143.753 42.0405 143.003 41.7251C142.257 41.4098 141.673 40.9496 141.252 40.3445C140.834 39.7393 140.608 39.0021 140.574 38.1328H142.907C142.941 38.5888 143.082 38.968 143.329 39.2706C143.576 39.5732 143.898 39.799 144.294 39.9482C144.695 40.0973 145.142 40.1719 145.637 40.1719C146.152 40.1719 146.604 40.0952 146.992 39.9418C147.384 39.7841 147.691 39.5668 147.912 39.2898C148.134 39.0085 148.247 38.6804 148.251 38.3054C148.247 37.9645 148.146 37.6832 147.95 37.4616C147.754 37.2358 147.48 37.0483 147.126 36.8991C146.776 36.7457 146.367 36.6094 145.899 36.4901L144.409 36.1065C143.331 35.8295 142.479 35.4098 141.852 34.8473C141.23 34.2805 140.919 33.5284 140.919 32.5909C140.919 31.8196 141.128 31.1442 141.546 30.5646C141.968 29.9851 142.541 29.5355 143.265 29.2159C143.99 28.892 144.81 28.7301 145.726 28.7301C146.655 28.7301 147.469 28.892 148.168 29.2159C148.871 29.5355 149.423 29.9808 149.823 30.5518C150.224 31.1186 150.431 31.7706 150.443 32.5078H148.161ZM164.434 35.4545C164.434 36.8651 164.17 38.0732 163.641 39.0788C163.117 40.0803 162.401 40.8473 161.494 41.38C160.59 41.9126 159.565 42.179 158.419 42.179C157.273 42.179 156.246 41.9126 155.338 41.38C154.435 40.843 153.719 40.0739 153.19 39.0724C152.666 38.0668 152.404 36.8608 152.404 35.4545C152.404 34.044 152.666 32.8381 153.19 31.8366C153.719 30.831 154.435 30.0618 155.338 29.5291C156.246 28.9964 157.273 28.7301 158.419 28.7301C159.565 28.7301 160.59 28.9964 161.494 29.5291C162.401 30.0618 163.117 30.831 163.641 31.8366C164.17 32.8381 164.434 34.044 164.434 35.4545ZM162.05 35.4545C162.05 34.4616 161.894 33.6243 161.583 32.9425C161.276 32.2564 160.85 31.7386 160.305 31.3892C159.759 31.0355 159.131 30.8587 158.419 30.8587C157.707 30.8587 157.079 31.0355 156.533 31.3892C155.988 31.7386 155.56 32.2564 155.249 32.9425C154.942 33.6243 154.788 34.4616 154.788 35.4545C154.788 36.4474 154.942 37.2869 155.249 37.973C155.56 38.6548 155.988 39.1726 156.533 39.5263C157.079 39.8757 157.707 40.0504 158.419 40.0504C159.131 40.0504 159.759 39.8757 160.305 39.5263C160.85 39.1726 161.276 38.6548 161.583 37.973C161.894 37.2869 162.05 36.4474 162.05 35.4545ZM166.676 42V28.9091H175.062V30.897H169.047V34.451H174.487V36.4389H169.047V42H166.676ZM176.648 30.897V28.9091H187.092V30.897H183.046V42H180.694V30.897H176.648Z" fill="#A5C3FF"/>
</svg>
